# xmcd
#
# Track frame offsets: 
#        183
#        16808
#        33408
#        62220
#        73758
#        89083
#        105670
#        128370
#        145270
#        166158
#
# Disc length: 2375 seconds
#
# Revision: 3
# Processed by: cddbd v1.5.2PL0 Copyright (c) Steve Scherf et al.
# Submitted via: ExactAudioCopy v1.3
#
DISCID=8309450a
DTITLE=James Cotton - High Compression
DYEAR=1984
DGENRE=Blues
TTITLE0=Diiggin' My Potatoes
TTITLE1=Ying Yang
TTITLE2=23 Hours Too Long
TTITLE3=No More Doggin'
TTITLE4=No Cuttin' Loose
TTITLE5=Ain't Doin' Too Bad
TTITLE6=Sunny Road
TTITLE7=Superharp
TTITLE8=Easy Loving
TTITLE9=High Compression
EXTD=The James Cotton Chicago Blues All-Stars\nJames Cotton, Harmonica
EXTD=and Vocals\nMagic Slim, Guitar\nPinetop Perkins, Piano\nAron Burto
EXTD=n, Bass\nRobert Covington, Drums\n\nThe James Cotton Band\nJames 
EXTD=Cotton, Harmonica and Vocals\nMichael Coleman, Guitar\nEddie Harsch
EXTD=, Keyboards\nDouglas Fagen, Tenor Sax\nNoel Neal, Bass\nRay Allis
EXTD=on, Drums\nwith\nDanny Fields, Trumpet\nJohnny Cotton, Trombone\n
EXTD=\nArranged by James Cotton and Michael Coleman\nHorns arranged by D
EXTD=ouglas Fagen\n\nProduced by Bruce Iglauer and James Cotton\nRecorde
EXTD=d at Streeterville Studios, Chicago\nEngineered and mixed by Justin
EXTD=Niebank\n\nJames Cotton is managed by Gordon Kennerly (312) 238-
EXTD=9250
EXTT0=The James Cotton Chicago Blues All-Stars
EXTT1=The James Cotton Band
EXTT2=The James Cotton Chicago Blues All-Stars
EXTT3=The James Cotton Chicago Blues All-Stars
EXTT4=The James Cotton Band
EXTT5=The James Cotton Band
EXTT6=The James Cotton Chicago Blues All-Stars
EXTT7=The James Cotton Band
EXTT8=The James Cotton Band
EXTT9=The James Cotton Chicago Blues All-Stars
PLAYORDER=
